<mxfile host="app.diagrams.net" agent="Mozilla/5.0 (Windows NT 10.0; Win64; x64) AppleWebKit/537.36 (KHTML, like Gecko) Chrome/126.0.0.0 Safari/537.36" version="24.7.6">
  <diagram name="Page-1" id="Ee3I2UcbnhjylMUr88q3">
    <mxGraphModel dx="556" dy="547" grid="0" gridSize="10" guides="1" tooltips="1" connect="1" arrows="1" fold="1" page="0" pageScale="1" pageWidth="827" pageHeight="1169" math="0" shadow="0">
      <root>
        <mxCell id="0" />
        <mxCell id="1" parent="0" />
        <mxCell id="Q6wZRFh6BZrXRjXHPWUo-1" value="Will MSTR end up owning more Bitcoin than any company or country&lt;div&gt;(C&amp;amp;C) ?&lt;/div&gt;" style="rhombus;whiteSpace=wrap;html=1;" vertex="1" parent="1">
          <mxGeometry x="722" y="170" width="210" height="290" as="geometry" />
        </mxCell>
        <mxCell id="Q6wZRFh6BZrXRjXHPWUo-5" value="" style="endArrow=classic;html=1;rounded=0;exitX=0.5;exitY=1;exitDx=0;exitDy=0;exitPerimeter=0;entryX=0.5;entryY=0;entryDx=0;entryDy=0;" edge="1" parent="1" target="Q6wZRFh6BZrXRjXHPWUo-1">
          <mxGeometry width="50" height="50" relative="1" as="geometry">
            <mxPoint x="827" y="133" as="sourcePoint" />
            <mxPoint x="850" y="400" as="targetPoint" />
          </mxGeometry>
        </mxCell>
        <mxCell id="Q6wZRFh6BZrXRjXHPWUo-6" value="" style="endArrow=none;html=1;rounded=0;entryX=0;entryY=0.5;entryDx=0;entryDy=0;" edge="1" parent="1" target="Q6wZRFh6BZrXRjXHPWUo-1">
          <mxGeometry width="50" height="50" relative="1" as="geometry">
            <mxPoint x="680" y="315" as="sourcePoint" />
            <mxPoint x="850" y="400" as="targetPoint" />
          </mxGeometry>
        </mxCell>
        <mxCell id="Q6wZRFh6BZrXRjXHPWUo-8" value="" style="endArrow=classic;html=1;rounded=0;" edge="1" parent="1">
          <mxGeometry width="50" height="50" relative="1" as="geometry">
            <mxPoint x="600" y="314" as="sourcePoint" />
            <mxPoint x="600" y="492" as="targetPoint" />
          </mxGeometry>
        </mxCell>
        <mxCell id="Q6wZRFh6BZrXRjXHPWUo-9" value="&lt;font style=&quot;font-size: 15px;&quot;&gt;Yes&lt;/font&gt;" style="text;html=1;align=center;verticalAlign=middle;resizable=0;points=[];autosize=1;strokeColor=none;fillColor=none;" vertex="1" parent="1">
          <mxGeometry x="639" y="300" width="42" height="30" as="geometry" />
        </mxCell>
        <mxCell id="Q6wZRFh6BZrXRjXHPWUo-13" value="" style="endArrow=none;html=1;rounded=0;entryX=0;entryY=0.5;entryDx=0;entryDy=0;" edge="1" parent="1">
          <mxGeometry width="50" height="50" relative="1" as="geometry">
            <mxPoint x="932" y="314.5" as="sourcePoint" />
            <mxPoint x="974" y="314.5" as="targetPoint" />
          </mxGeometry>
        </mxCell>
        <mxCell id="Q6wZRFh6BZrXRjXHPWUo-14" value="&lt;font style=&quot;font-size: 15px;&quot;&gt;No&lt;/font&gt;" style="text;html=1;align=center;verticalAlign=middle;resizable=0;points=[];autosize=1;strokeColor=none;fillColor=none;" vertex="1" parent="1">
          <mxGeometry x="971" y="300" width="37" height="30" as="geometry" />
        </mxCell>
        <mxCell id="Q6wZRFh6BZrXRjXHPWUo-15" value="" style="endArrow=none;html=1;rounded=0;entryX=0;entryY=0.5;entryDx=0;entryDy=0;" edge="1" parent="1">
          <mxGeometry width="50" height="50" relative="1" as="geometry">
            <mxPoint x="600" y="314.5" as="sourcePoint" />
            <mxPoint x="642" y="314.5" as="targetPoint" />
          </mxGeometry>
        </mxCell>
        <mxCell id="Q6wZRFh6BZrXRjXHPWUo-16" value="" style="endArrow=none;html=1;rounded=0;entryX=0;entryY=0.5;entryDx=0;entryDy=0;" edge="1" parent="1">
          <mxGeometry width="50" height="50" relative="1" as="geometry">
            <mxPoint x="1009" y="314.5" as="sourcePoint" />
            <mxPoint x="1051" y="314.5" as="targetPoint" />
          </mxGeometry>
        </mxCell>
        <mxCell id="Q6wZRFh6BZrXRjXHPWUo-21" value="A higher and higher mNAV is justified" style="rounded=1;whiteSpace=wrap;html=1;" vertex="1" parent="1">
          <mxGeometry x="541" y="494" width="120" height="60" as="geometry" />
        </mxCell>
        <mxCell id="Q6wZRFh6BZrXRjXHPWUo-22" value="If 1-n C&amp;amp;C&#39;s own more BTC than MSTR, then mNAV won&#39;t even matter" style="rounded=1;whiteSpace=wrap;html=1;" vertex="1" parent="1">
          <mxGeometry x="991" y="494" width="120" height="60" as="geometry" />
        </mxCell>
        <mxCell id="Q6wZRFh6BZrXRjXHPWUo-23" value="" style="endArrow=classic;html=1;rounded=0;" edge="1" parent="1">
          <mxGeometry width="50" height="50" relative="1" as="geometry">
            <mxPoint x="1051.5" y="314" as="sourcePoint" />
            <mxPoint x="1051.5" y="492" as="targetPoint" />
          </mxGeometry>
        </mxCell>
        <mxCell id="Q6wZRFh6BZrXRjXHPWUo-25" value="" style="endArrow=classic;html=1;rounded=0;exitX=1;exitY=0.5;exitDx=0;exitDy=0;entryX=0;entryY=0.5;entryDx=0;entryDy=0;" edge="1" parent="1" source="Q6wZRFh6BZrXRjXHPWUo-21" target="Q6wZRFh6BZrXRjXHPWUo-27">
          <mxGeometry width="50" height="50" relative="1" as="geometry">
            <mxPoint x="799" y="446" as="sourcePoint" />
            <mxPoint x="750" y="524" as="targetPoint" />
          </mxGeometry>
        </mxCell>
        <mxCell id="Q6wZRFh6BZrXRjXHPWUo-27" value="Both Result in&lt;div&gt;Higher MSTR&lt;/div&gt;&lt;div&gt;Market Cap&lt;/div&gt;" style="rounded=0;whiteSpace=wrap;html=1;" vertex="1" parent="1">
          <mxGeometry x="767" y="494" width="120" height="60" as="geometry" />
        </mxCell>
        <mxCell id="Q6wZRFh6BZrXRjXHPWUo-29" value="" style="endArrow=classic;html=1;rounded=0;exitX=0;exitY=0.5;exitDx=0;exitDy=0;entryX=1;entryY=0.5;entryDx=0;entryDy=0;" edge="1" parent="1" source="Q6wZRFh6BZrXRjXHPWUo-22" target="Q6wZRFh6BZrXRjXHPWUo-27">
          <mxGeometry width="50" height="50" relative="1" as="geometry">
            <mxPoint x="671" y="534" as="sourcePoint" />
            <mxPoint x="777" y="534" as="targetPoint" />
          </mxGeometry>
        </mxCell>
        <mxCell id="Q6wZRFh6BZrXRjXHPWUo-30" value="End" style="html=1;dashed=0;whiteSpace=wrap;shape=mxgraph.dfd.start" vertex="1" parent="1">
          <mxGeometry x="787" y="592" width="80" height="30" as="geometry" />
        </mxCell>
        <mxCell id="Q6wZRFh6BZrXRjXHPWUo-31" value="Start" style="html=1;dashed=0;whiteSpace=wrap;shape=mxgraph.dfd.start" vertex="1" parent="1">
          <mxGeometry x="787" y="101" width="80" height="30" as="geometry" />
        </mxCell>
        <mxCell id="Q6wZRFh6BZrXRjXHPWUo-32" value="" style="endArrow=classic;html=1;rounded=0;exitX=0.5;exitY=1;exitDx=0;exitDy=0;exitPerimeter=0;entryX=0.5;entryY=0;entryDx=0;entryDy=0;" edge="1" parent="1">
          <mxGeometry width="50" height="50" relative="1" as="geometry">
            <mxPoint x="827" y="554" as="sourcePoint" />
            <mxPoint x="827" y="591" as="targetPoint" />
          </mxGeometry>
        </mxCell>
      </root>
    </mxGraphModel>
  </diagram>
</mxfile>
